<mxfile host="app.diagrams.net" modified="2024-03-27T12:50:03.811Z" agent="Mozilla/5.0 (Windows NT 10.0; Win64; x64) AppleWebKit/537.36 (KHTML, like Gecko) Chrome/123.0.0.0 Safari/537.36" etag="vBgEyis9im3lqY1DRawF" version="24.2.0" type="device">
  <diagram id="nkRy5q7OzSAb-ktJXOIK" name="Page-1">
    <mxGraphModel dx="1050" dy="565" grid="0" gridSize="10" guides="1" tooltips="1" connect="1" arrows="1" fold="1" page="0" pageScale="1" pageWidth="1100" pageHeight="850" math="0" shadow="0">
      <root>
        <mxCell id="0" />
        <mxCell id="1" parent="0" />
        <mxCell id="LvAFzk6MgwHDGyijy54c-16" style="edgeStyle=orthogonalEdgeStyle;rounded=0;orthogonalLoop=1;jettySize=auto;html=1;entryX=0;entryY=0.75;entryDx=0;entryDy=0;" parent="1" source="LvAFzk6MgwHDGyijy54c-2" target="LvAFzk6MgwHDGyijy54c-4" edge="1">
          <mxGeometry relative="1" as="geometry">
            <Array as="points">
              <mxPoint x="200" y="123" />
            </Array>
          </mxGeometry>
        </mxCell>
        <mxCell id="LvAFzk6MgwHDGyijy54c-2" value="&lt;font style=&quot;font-size: 14px;&quot;&gt;&lt;b&gt;Host&lt;/b&gt;&lt;/font&gt;" style="rounded=1;whiteSpace=wrap;html=1;fillColor=#d5e8d4;strokeColor=#82b366;" parent="1" vertex="1">
          <mxGeometry x="60" y="110" width="110" height="30" as="geometry" />
        </mxCell>
        <mxCell id="LvAFzk6MgwHDGyijy54c-3" value="" style="rounded=0;whiteSpace=wrap;html=1;" parent="1" vertex="1">
          <mxGeometry x="230" y="87.5" width="250" height="82.5" as="geometry" />
        </mxCell>
        <mxCell id="LvAFzk6MgwHDGyijy54c-4" value="&lt;font style=&quot;font-size: 14px;&quot;&gt;&lt;b&gt;Do you want to set Custom Problem?&lt;/b&gt;&lt;/font&gt;" style="text;html=1;align=center;verticalAlign=middle;whiteSpace=wrap;rounded=0;" parent="1" vertex="1">
          <mxGeometry x="230" y="100" width="250" height="30" as="geometry" />
        </mxCell>
        <mxCell id="LvAFzk6MgwHDGyijy54c-5" value="&lt;b&gt;YES&lt;/b&gt;" style="rounded=0;whiteSpace=wrap;html=1;fillColor=#dae8fc;strokeColor=#6c8ebf;gradientColor=#7ea6e0;" parent="1" vertex="1">
          <mxGeometry x="290" y="140" width="40" height="20" as="geometry" />
        </mxCell>
        <mxCell id="GmoQfXXvp_u6tKYj_iUC-34" style="edgeStyle=orthogonalEdgeStyle;rounded=0;orthogonalLoop=1;jettySize=auto;html=1;entryX=0.5;entryY=0;entryDx=0;entryDy=0;" parent="1" source="LvAFzk6MgwHDGyijy54c-6" target="GmoQfXXvp_u6tKYj_iUC-33" edge="1">
          <mxGeometry relative="1" as="geometry" />
        </mxCell>
        <mxCell id="LvAFzk6MgwHDGyijy54c-6" value="&lt;b&gt;NO&lt;/b&gt;" style="rounded=0;whiteSpace=wrap;html=1;fillColor=#dae8fc;strokeColor=#6c8ebf;gradientColor=#7ea6e0;" parent="1" vertex="1">
          <mxGeometry x="380" y="140" width="40" height="20" as="geometry" />
        </mxCell>
        <mxCell id="LvAFzk6MgwHDGyijy54c-7" value="" style="rounded=0;whiteSpace=wrap;html=1;" parent="1" vertex="1">
          <mxGeometry x="80" y="230" width="360" height="190" as="geometry" />
        </mxCell>
        <mxCell id="LvAFzk6MgwHDGyijy54c-8" value="&lt;font style=&quot;font-size: 18px;&quot;&gt;&lt;b&gt;Problem Setting&lt;/b&gt;&lt;/font&gt;" style="text;html=1;align=center;verticalAlign=middle;whiteSpace=wrap;rounded=0;" parent="1" vertex="1">
          <mxGeometry x="160" y="250" width="180" height="30" as="geometry" />
        </mxCell>
        <mxCell id="LvAFzk6MgwHDGyijy54c-9" value="" style="rounded=1;whiteSpace=wrap;html=1;" parent="1" vertex="1">
          <mxGeometry x="95" y="330" width="310" height="40" as="geometry" />
        </mxCell>
        <mxCell id="LvAFzk6MgwHDGyijy54c-10" value="&lt;font style=&quot;font-size: 14px;&quot;&gt;How many problem do you want to set ?&lt;/font&gt;" style="text;html=1;align=center;verticalAlign=middle;whiteSpace=wrap;rounded=0;" parent="1" vertex="1">
          <mxGeometry x="90" y="300" width="265" height="30" as="geometry" />
        </mxCell>
        <mxCell id="LvAFzk6MgwHDGyijy54c-11" value="&lt;b&gt;Next&lt;/b&gt;" style="rounded=0;whiteSpace=wrap;html=1;fillColor=#dae8fc;strokeColor=#6c8ebf;gradientColor=#7ea6e0;" parent="1" vertex="1">
          <mxGeometry x="215" y="380" width="70" height="30" as="geometry" />
        </mxCell>
        <mxCell id="LvAFzk6MgwHDGyijy54c-12" value="" style="rounded=0;whiteSpace=wrap;html=1;" parent="1" vertex="1">
          <mxGeometry x="580" y="87.5" width="370" height="672.5" as="geometry" />
        </mxCell>
        <mxCell id="LvAFzk6MgwHDGyijy54c-13" value="&lt;font style=&quot;font-size: 18px;&quot;&gt;&lt;b&gt;Problem: 1&lt;/b&gt;&lt;/font&gt;" style="text;html=1;align=center;verticalAlign=middle;whiteSpace=wrap;rounded=0;" parent="1" vertex="1">
          <mxGeometry x="670" y="113.75" width="180" height="30" as="geometry" />
        </mxCell>
        <mxCell id="LvAFzk6MgwHDGyijy54c-14" value="" style="rounded=1;whiteSpace=wrap;html=1;" parent="1" vertex="1">
          <mxGeometry x="605" y="190" width="320" height="30" as="geometry" />
        </mxCell>
        <mxCell id="LvAFzk6MgwHDGyijy54c-15" value="&lt;font style=&quot;font-size: 14px;&quot;&gt;Problem Title/Name&lt;/font&gt;" style="text;html=1;align=left;verticalAlign=middle;whiteSpace=wrap;rounded=0;" parent="1" vertex="1">
          <mxGeometry x="605" y="160" width="265" height="30" as="geometry" />
        </mxCell>
        <mxCell id="GmoQfXXvp_u6tKYj_iUC-1" value="ms" style="rounded=1;whiteSpace=wrap;html=1;" parent="1" vertex="1">
          <mxGeometry x="605" y="260" width="75" height="20" as="geometry" />
        </mxCell>
        <mxCell id="GmoQfXXvp_u6tKYj_iUC-2" value="&lt;font style=&quot;font-size: 14px;&quot;&gt;Time Limit&lt;/font&gt;" style="text;html=1;align=left;verticalAlign=middle;whiteSpace=wrap;rounded=0;" parent="1" vertex="1">
          <mxGeometry x="605" y="230" width="265" height="30" as="geometry" />
        </mxCell>
        <mxCell id="GmoQfXXvp_u6tKYj_iUC-3" value="MB" style="rounded=1;whiteSpace=wrap;html=1;" parent="1" vertex="1">
          <mxGeometry x="710" y="260" width="75" height="20" as="geometry" />
        </mxCell>
        <mxCell id="GmoQfXXvp_u6tKYj_iUC-4" value="&lt;font style=&quot;font-size: 14px;&quot;&gt;Memory Limit&lt;/font&gt;" style="text;html=1;align=left;verticalAlign=middle;whiteSpace=wrap;rounded=0;" parent="1" vertex="1">
          <mxGeometry x="700" y="230" width="100" height="30" as="geometry" />
        </mxCell>
        <mxCell id="GmoQfXXvp_u6tKYj_iUC-5" value="&lt;font style=&quot;font-size: 14px;&quot;&gt;Problem Description&lt;/font&gt;" style="text;html=1;align=left;verticalAlign=middle;whiteSpace=wrap;rounded=0;" parent="1" vertex="1">
          <mxGeometry x="605" y="300" width="265" height="30" as="geometry" />
        </mxCell>
        <mxCell id="GmoQfXXvp_u6tKYj_iUC-6" value="" style="rounded=1;whiteSpace=wrap;html=1;" parent="1" vertex="1">
          <mxGeometry x="605" y="330" width="320" height="60" as="geometry" />
        </mxCell>
        <mxCell id="GmoQfXXvp_u6tKYj_iUC-7" value="" style="endArrow=none;html=1;rounded=0;" parent="1" edge="1">
          <mxGeometry width="50" height="50" relative="1" as="geometry">
            <mxPoint x="785" y="349.5" as="sourcePoint" />
            <mxPoint x="710" y="349.5" as="targetPoint" />
          </mxGeometry>
        </mxCell>
        <mxCell id="GmoQfXXvp_u6tKYj_iUC-8" value="" style="endArrow=none;html=1;rounded=0;" parent="1" edge="1">
          <mxGeometry width="50" height="50" relative="1" as="geometry">
            <mxPoint x="785" y="359.5" as="sourcePoint" />
            <mxPoint x="710" y="359.5" as="targetPoint" />
          </mxGeometry>
        </mxCell>
        <mxCell id="GmoQfXXvp_u6tKYj_iUC-9" value="" style="endArrow=none;html=1;rounded=0;" parent="1" edge="1">
          <mxGeometry width="50" height="50" relative="1" as="geometry">
            <mxPoint x="785" y="370" as="sourcePoint" />
            <mxPoint x="710" y="370" as="targetPoint" />
          </mxGeometry>
        </mxCell>
        <mxCell id="GmoQfXXvp_u6tKYj_iUC-10" value="&lt;font style=&quot;font-size: 14px;&quot;&gt;Input format&lt;/font&gt;" style="text;html=1;align=left;verticalAlign=middle;whiteSpace=wrap;rounded=0;" parent="1" vertex="1">
          <mxGeometry x="605" y="400" width="265" height="30" as="geometry" />
        </mxCell>
        <mxCell id="GmoQfXXvp_u6tKYj_iUC-11" value="" style="rounded=1;whiteSpace=wrap;html=1;" parent="1" vertex="1">
          <mxGeometry x="605" y="430" width="320" height="30" as="geometry" />
        </mxCell>
        <mxCell id="GmoQfXXvp_u6tKYj_iUC-12" value="&lt;font style=&quot;font-size: 14px;&quot;&gt;Output format&lt;/font&gt;" style="text;html=1;align=left;verticalAlign=middle;whiteSpace=wrap;rounded=0;" parent="1" vertex="1">
          <mxGeometry x="605" y="470" width="265" height="30" as="geometry" />
        </mxCell>
        <mxCell id="GmoQfXXvp_u6tKYj_iUC-13" value="" style="rounded=1;whiteSpace=wrap;html=1;" parent="1" vertex="1">
          <mxGeometry x="605" y="500" width="320" height="30" as="geometry" />
        </mxCell>
        <mxCell id="GmoQfXXvp_u6tKYj_iUC-14" value="&lt;font style=&quot;font-size: 14px;&quot;&gt;Add Solution&lt;/font&gt;" style="text;html=1;align=left;verticalAlign=middle;whiteSpace=wrap;rounded=0;" parent="1" vertex="1">
          <mxGeometry x="605" y="540" width="265" height="30" as="geometry" />
        </mxCell>
        <mxCell id="GmoQfXXvp_u6tKYj_iUC-15" value="Upload your file" style="rounded=1;whiteSpace=wrap;html=1;fillColor=#f5f5f5;gradientColor=#b3b3b3;strokeColor=#666666;" parent="1" vertex="1">
          <mxGeometry x="695" y="546.25" width="230" height="17.5" as="geometry" />
        </mxCell>
        <mxCell id="GmoQfXXvp_u6tKYj_iUC-16" value="&lt;font style=&quot;font-size: 14px;&quot;&gt;Total Test cases&lt;/font&gt;" style="text;html=1;align=left;verticalAlign=middle;whiteSpace=wrap;rounded=0;" parent="1" vertex="1">
          <mxGeometry x="605" y="580" width="105" height="30" as="geometry" />
        </mxCell>
        <mxCell id="GmoQfXXvp_u6tKYj_iUC-17" value="" style="rounded=1;whiteSpace=wrap;html=1;" parent="1" vertex="1">
          <mxGeometry x="710" y="586.25" width="30" height="17.5" as="geometry" />
        </mxCell>
        <mxCell id="GmoQfXXvp_u6tKYj_iUC-18" value="&lt;span style=&quot;font-size: 14px;&quot;&gt;Input file of Test Cases&lt;/span&gt;" style="text;html=1;align=left;verticalAlign=middle;whiteSpace=wrap;rounded=0;" parent="1" vertex="1">
          <mxGeometry x="605" y="620" width="145" height="30" as="geometry" />
        </mxCell>
        <mxCell id="GmoQfXXvp_u6tKYj_iUC-19" value="Upload your file" style="rounded=1;whiteSpace=wrap;html=1;fillColor=#f5f5f5;gradientColor=#b3b3b3;strokeColor=#666666;" parent="1" vertex="1">
          <mxGeometry x="755" y="626.25" width="170" height="17.5" as="geometry" />
        </mxCell>
        <mxCell id="GmoQfXXvp_u6tKYj_iUC-20" value="&lt;span style=&quot;font-size: 14px;&quot;&gt;Output file of Test Cases&lt;/span&gt;" style="text;html=1;align=left;verticalAlign=middle;whiteSpace=wrap;rounded=0;" parent="1" vertex="1">
          <mxGeometry x="605" y="660" width="160" height="30" as="geometry" />
        </mxCell>
        <mxCell id="GmoQfXXvp_u6tKYj_iUC-21" value="Upload your file" style="rounded=1;whiteSpace=wrap;html=1;fillColor=#f5f5f5;gradientColor=#b3b3b3;strokeColor=#666666;" parent="1" vertex="1">
          <mxGeometry x="765" y="666.25" width="170" height="17.5" as="geometry" />
        </mxCell>
        <mxCell id="-qnyn-EYZJDO4bNaORCo-1" style="edgeStyle=orthogonalEdgeStyle;rounded=0;orthogonalLoop=1;jettySize=auto;html=1;" edge="1" parent="1" source="GmoQfXXvp_u6tKYj_iUC-23">
          <mxGeometry relative="1" as="geometry">
            <mxPoint x="281.20001220703125" y="681" as="targetPoint" />
          </mxGeometry>
        </mxCell>
        <mxCell id="GmoQfXXvp_u6tKYj_iUC-23" value="&lt;b&gt;Submit&lt;/b&gt;" style="rounded=0;whiteSpace=wrap;html=1;fillColor=#dae8fc;strokeColor=#6c8ebf;gradientColor=#7ea6e0;" parent="1" vertex="1">
          <mxGeometry x="730" y="710" width="70" height="30" as="geometry" />
        </mxCell>
        <mxCell id="GmoQfXXvp_u6tKYj_iUC-24" style="edgeStyle=orthogonalEdgeStyle;rounded=0;orthogonalLoop=1;jettySize=auto;html=1;entryX=0.003;entryY=0.353;entryDx=0;entryDy=0;entryPerimeter=0;" parent="1" source="LvAFzk6MgwHDGyijy54c-7" target="LvAFzk6MgwHDGyijy54c-12" edge="1">
          <mxGeometry relative="1" as="geometry" />
        </mxCell>
        <mxCell id="GmoQfXXvp_u6tKYj_iUC-25" value="&lt;b&gt;For Each Custom&lt;/b&gt;&lt;div&gt;&lt;b&gt;Problems&lt;/b&gt;&lt;/div&gt;" style="edgeLabel;html=1;align=center;verticalAlign=middle;resizable=0;points=[];" parent="GmoQfXXvp_u6tKYj_iUC-24" vertex="1" connectable="0">
          <mxGeometry x="-0.0072" y="5" relative="1" as="geometry">
            <mxPoint x="-1" as="offset" />
          </mxGeometry>
        </mxCell>
        <mxCell id="GmoQfXXvp_u6tKYj_iUC-26" style="edgeStyle=orthogonalEdgeStyle;rounded=0;orthogonalLoop=1;jettySize=auto;html=1;entryX=0.479;entryY=0.003;entryDx=0;entryDy=0;entryPerimeter=0;" parent="1" source="LvAFzk6MgwHDGyijy54c-5" target="LvAFzk6MgwHDGyijy54c-7" edge="1">
          <mxGeometry relative="1" as="geometry" />
        </mxCell>
        <mxCell id="GmoQfXXvp_u6tKYj_iUC-27" value="" style="rounded=0;whiteSpace=wrap;html=1;" parent="1" vertex="1">
          <mxGeometry x="160" y="480" width="280" height="199" as="geometry" />
        </mxCell>
        <mxCell id="GmoQfXXvp_u6tKYj_iUC-29" value="&lt;b&gt;&lt;font style=&quot;font-size: 18px;&quot;&gt;Thanks for setting up this new problem&lt;/font&gt;&lt;/b&gt;" style="text;html=1;align=center;verticalAlign=middle;whiteSpace=wrap;rounded=0;" parent="1" vertex="1">
          <mxGeometry x="200" y="500" width="200" height="50" as="geometry" />
        </mxCell>
        <mxCell id="GmoQfXXvp_u6tKYj_iUC-30" value="&lt;font style=&quot;font-size: 14px;&quot;&gt;Your problem ID: 1313&lt;/font&gt;" style="rounded=1;whiteSpace=wrap;html=1;fillColor=#d5e8d4;gradientColor=#97d077;strokeColor=#82b366;" parent="1" vertex="1">
          <mxGeometry x="200" y="573.75" width="200" height="30" as="geometry" />
        </mxCell>
        <mxCell id="GmoQfXXvp_u6tKYj_iUC-33" value="&lt;b&gt;Contest details&lt;/b&gt;" style="rounded=0;whiteSpace=wrap;html=1;fillColor=#d5e8d4;strokeColor=#82b366;" parent="1" vertex="1">
          <mxGeometry x="460" y="190" width="100" height="30" as="geometry" />
        </mxCell>
        <mxCell id="GmoQfXXvp_u6tKYj_iUC-35" value="&lt;font style=&quot;font-size: 14px;&quot;&gt;Online Judge: CodeSphere&lt;/font&gt;" style="rounded=1;whiteSpace=wrap;html=1;fillColor=#d5e8d4;gradientColor=#97d077;strokeColor=#82b366;" parent="1" vertex="1">
          <mxGeometry x="200" y="613.75" width="200" height="30" as="geometry" />
        </mxCell>
      </root>
    </mxGraphModel>
  </diagram>
</mxfile>
